<svg width="128" height="128" viewBox="0 0 128 128" fill="none" xmlns="http://www.w3.org/2000/svg">
<path d="M59.482 91.2459V38.1282H43.1133V28.0791H80.3264V38.1282H69.5582V91.2459C69.5582 96.3995 73.8365 100.666 79.004 100.666H80.3264V110.715H79.004C68.2319 110.715 59.482 101.989 59.482 91.2459Z" fill="#888888" fill-opacity="0.3"/>
<path d="M48.1575 17.5931L34.6146 4.05936C34.246 3.70029 33.7508 3.50061 33.2361 3.50351H10.0197C8.99344 3.50351 8.00924 3.9109 7.28359 4.63607C6.55794 5.36123 6.15027 6.34477 6.15027 7.3703V49.905C6.15027 50.9305 6.55794 51.9141 7.28359 52.6392C8.00924 53.3644 8.99344 53.7718 10.0197 53.7718H44.8443C45.8705 53.7718 46.8547 53.3644 47.5804 52.6392C48.306 51.9141 48.7137 50.9305 48.7137 49.905V18.9707C48.7166 18.4563 48.5168 17.9615 48.1575 17.5931V17.5931ZM33.2361 18.9707V8.337L43.877 18.9707H33.2361Z" fill="#F0AC5B"/>
<path d="M122.084 17.5931L108.541 4.05936C108.172 3.70029 107.677 3.50061 107.162 3.50351H83.9457C82.9195 3.50351 81.9353 3.9109 81.2096 4.63607C80.484 5.36123 80.0763 6.34477 80.0763 7.3703V49.905C80.0763 50.9305 80.484 51.9141 81.2096 52.6392C81.9353 53.3644 82.9195 53.7718 83.9457 53.7718H118.77C119.797 53.7718 120.781 53.3644 121.506 52.6392C122.232 51.9141 122.64 50.9305 122.64 49.905V18.9707C122.643 18.4563 122.443 17.9615 122.084 17.5931V17.5931ZM107.162 18.9707V8.337L117.803 18.9707H107.162Z" fill="#F0AC5B" fill-opacity="0.5"/>
<path d="M122.084 87.9688L108.541 74.435C108.172 74.0759 107.677 73.8763 107.162 73.8792H83.9457C82.9195 73.8792 81.9353 74.2865 81.2096 75.0117C80.484 75.7369 80.0763 76.7204 80.0763 77.7459V120.281C80.0763 121.306 80.484 122.29 81.2096 123.015C81.9353 123.74 82.9195 124.147 83.9457 124.147H118.77C119.797 124.147 120.781 123.74 121.506 123.015C122.232 122.29 122.64 121.306 122.64 120.281V89.3463C122.643 88.8319 122.443 88.3371 122.084 87.9688V87.9688ZM107.162 89.3463V78.7126L117.803 89.3463H107.162Z" fill="#F0AC5B" fill-opacity="0.5"/>
</svg>
